<svg version="1.0" xmlns="http://www.w3.org/2000/svg" width="50.000000pt" height="30.000000pt" viewBox="0 0 500.000000 270.000000" preserveAspectRatio="xMidYMid meet">
	<g transform="matrix(0.146022, 0.047445, 0.044488, -0.136916, -246.298584, 446.969391)" fill="#000000" stroke="none" data-bx-origin="0.485999 0.5">
		<path d="M3675 4152 c-115 -24 -173 -159 -132 -303 26 -87 68 -119 140 -105
          55 10 97 54 104 106 l6 45 -37 -33 c-44 -39 -74 -39 -95 0 -15 27 -15 28 27
          64 52 44 72 81 72 131 0 68 -34 106 -85 95z m19 -58 c18 -46 -12 -154 -43
          -154 -24 0 -23 106 1 153 11 21 34 22 42 1z">
		</path>
		<path d="M3042 4088 c-40 -20 -41 -87 -2 -108 46 -25 100 20 87 73 -5 18 -47
          51 -60 46 -1 0 -12 -5 -25 -11z">
		</path>
		<path d="M3392 4058 c-16 -16 -16 -54 1 -65 6 -4 21 -8 32 -8 43 0 42 -199 -2
          -247 -16 -18 -53 -25 -53 -10 0 4 -9 66 -20 137 -11 72 -20 136 -20 143 0 14
          -17 11 -76 -13 l-31 -13 19 -132 c16 -106 17 -138 8 -161 -13 -30 -46 -47 -62
          -31 -8 8 -47 237 -48 280 0 14 -17 11 -76 -13 l-31 -13 20 -136 c18 -128 18
          -138 3 -162 -20 -30 -43 -41 -57 -27 -11 11 -49 253 -42 266 2 4 11 7 19 7 8
          0 14 8 14 18 0 13 -7 18 -22 18 -19 -1 -23 6 -30 47 -3 27 -9 51 -11 53 -3 3
          -26 -5 -52 -18 l-46 -23 6 -57 c5 -40 3 -58 -4 -58 -6 0 -11 -7 -11 -15 0 -8
          6 -15 14 -15 13 0 19 -29 42 -203 9 -66 41 -111 81 -115 43 -4 87 20 113 63
          21 34 23 35 41 19 40 -36 122 -6 155 58 14 28 17 29 33 14 42 -38 135 -5 173
          61 59 101 30 353 -42 361 -14 2 -31 -3 -38 -10z">
		</path>
		<path d="M2675 3788 c-11 -6 -30 -20 -42 -31 l-23 -20 0 26 c0 31 2 31 -41 13
          -19 -7 -41 -16 -50 -19 -14 -5 -14 -16 2 -129 23 -153 24 -202 3 -222 -20 -21
          -40 -20 -48 1 -4 9 -15 75 -26 146 -10 71 -21 131 -24 134 -6 6 -77 -16 -90
          -28 -5 -4 -1 -65 9 -143 20 -146 15 -186 -24 -186 -23 0 -25 7 -47 170 -9 69
          -18 126 -19 127 -1 3 -97 -27 -103 -32 -5 -4 39 -282 50 -309 13 -32 58 -55
          94 -48 28 5 84 65 84 89 0 14 4 13 23 -5 38 -36 90 -26 133 25 l22 25 12 -88
          c6 -49 14 -99 18 -111 l7 -23 48 32 c38 25 47 36 43 52 -3 12 -8 51 -12 89
          l-7 67 30 0 c35 0 87 33 117 73 28 38 30 179 3 249 -29 76 -87 107 -142 76z
          m39 -109 c25 -62 31 -139 13 -181 -15 -35 -52 -58 -67 -41 -8 9 -30 161 -30
          210 0 21 7 37 21 47 29 20 45 11 63 -35z">
		</path>
		<path d="M2052 3556 c-13 -7 -32 -26 -43 -42 -18 -27 -19 -27 -19 -6 0 12 -4
          22 -10 22 -7 0 -88 -29 -96 -34 -1 -1 6 -55 16 -121 17 -114 17 -121 1 -148
          l-18 -28 -58 136 c-32 74 -62 135 -66 135 -5 0 -29 -10 -54 -22 l-45 -22 0
          -103 c0 -67 -5 -118 -16 -149 -8 -25 -13 -52 -10 -60 6 -15 -26 -54 -44 -54
          -18 0 -28 36 -46 168 -12 91 -22 132 -31 132 -7 0 -31 -7 -53 -16 -37 -15 -40
          -19 -35 -48 2 -17 12 -80 20 -140 17 -123 29 -154 66 -175 36 -20 76 -7 120
          39 26 27 40 35 50 29 24 -15 78 -10 119 11 25 13 54 42 82 83 38 55 43 59 46
          37 8 -70 7 -70 56 -51 25 9 48 20 51 23 4 3 -3 70 -14 148 -21 144 -19 171 14
          183 9 4 19 -2 25 -13 14 -25 35 -25 60 0 26 26 25 46 -5 75 -28 28 -31 29 -63
          11z m-284 -406 c-4 -43 -46 -73 -72 -51 -15 12 -15 16 -1 31 18 20 19 34 4 58
          -8 13 -9 38 -4 78 l8 59 34 -70 c23 -47 33 -81 31 -105z">
		</path>
		<path d="M1417 3492 c-37 -40 -9 -102 46 -102 28 0 57 32 57 62 0 25 -36 58
          -63 58 -13 0 -31 -8 -40 -18z">
		</path>
		<path d="M3995 3460 c-11 -4 -32 -13 -46 -18 l-26 -10 18 -124 c23 -154 23
          -161 0 -189 -33 -41 -46 -13 -66 134 -10 72 -21 136 -25 140 -9 11 -91 -13
          -96 -28 -5 -13 33 -282 43 -299 17 -31 49 -56 72 -56 29 0 91 34 91 50 0 5 5
          10 11 10 7 0 -9 -22 -35 -50 -36 -38 -46 -57 -46 -82 0 -122 172 -108 200 16
          5 23 -3 109 -26 268 -18 128 -33 236 -34 241 0 9 -9 8 -35 -3z m-11 -456 c17
          -45 -8 -100 -39 -88 -20 8 -19 49 1 79 19 29 29 31 38 9z">
		</path>
		<path d="M1109 3416 c-113 -40 -209 -148 -209 -235 0 -66 37 -109 85 -97 l23
          6 -19 37 c-40 79 -12 173 67 223 61 39 111 40 153 4 70 -58 112 -314 66 -393
          -21 -36 -54 -54 -74 -42 -8 6 -71 383 -71 429 0 3 -88 -45 -99 -54 -3 -3 61
          -476 65 -483 6 -8 104 32 104 44 0 9 12 11 43 8 56 -6 97 21 128 84 21 42 24
          62 23 158 0 90 -4 120 -23 168 -26 65 -69 120 -112 143 -34 17 -102 18 -150 0z">
		</path>
		<path d="M3625 3307 c-30 -30 -34 -31 -38 -15 -5 18 -7 18 -49 2 -23 -9 -46
          -20 -50 -23 -4 -3 -1 -49 7 -101 8 -52 15 -111 15 -131 0 -70 -94 -160 -139
          -132 -9 5 -20 22 -25 36 -9 24 -5 31 31 62 68 58 90 132 58 194 -17 34 -43 43
          -90 30 -49 -14 -99 -67 -115 -123 -26 -95 6 -247 59 -276 30 -16 78 -12 120 9
          38 20 101 83 101 101 0 6 5 10 10 10 6 0 10 -13 10 -30 0 -35 1 -35 63 -13 40
          14 47 21 43 38 -2 11 -12 78 -22 148 l-17 128 21 21 c20 21 22 21 40 5 35 -32
          72 -14 72 33 0 30 -27 60 -54 60 -10 0 -33 -15 -51 -33z m-241 -133 c12 -30 6
          -90 -11 -114 -36 -53 -53 -48 -53 16 0 79 45 148 64 98z">
		</path>
		<path d="M2720 3160 c-25 -25 -26 -62 -2 -83 39 -35 102 -9 102 41 0 28 -34
          62 -60 62 -11 0 -29 -9 -40 -20z">
		</path>
		<path d="M3081 3136 c-7 -8 -11 -25 -9 -38 2 -18 9 -23 31 -23 34 1 41 -20 41
          -125 0 -78 -15 -125 -46 -144 -29 -18 -38 4 -60 150 -11 77 -21 141 -23 143
          -2 2 -27 -5 -55 -15 -36 -13 -49 -22 -46 -33 3 -9 12 -71 21 -139 16 -114 16
          -124 0 -148 -19 -30 -42 -41 -56 -27 -6 6 -19 73 -31 149 -11 77 -21 141 -23
          143 -2 2 -27 -5 -55 -15 -36 -13 -49 -22 -46 -33 3 -9 12 -71 21 -139 16 -114
          16 -124 0 -148 -19 -30 -42 -41 -57 -26 -5 5 -23 106 -40 223 -16 118 -32 216
          -34 218 -3 3 -25 -5 -49 -17 -54 -26 -54 -20 -20 -247 l23 -160 -20 -43 c-34
          -73 -111 -105 -142 -60 -22 32 -20 53 8 66 72 33 111 158 65 216 -19 25 -27
          28 -61 23 -49 -7 -100 -45 -124 -94 -14 -29 -19 -59 -18 -123 0 -103 26 -163
          78 -185 65 -28 163 23 203 104 l20 40 22 -30 c38 -51 118 -33 161 36 20 33 24
          35 39 21 39 -35 115 -10 151 49 21 34 23 35 41 19 24 -21 86 -14 127 15 79 56
          102 251 44 371 -19 39 -60 52 -81 26z m-641 -356 c0 -38 -6 -55 -27 -81 l-27
          -32 -8 29 c-10 36 -1 101 19 132 22 35 43 12 43 -48z">
		</path>
		<path d="M1915 2902 c-106 -52 -175 -141 -175 -227 0 -35 6 -52 25 -70 24 -25
          59 -33 69 -16 3 5 -1 22 -9 37 -17 34 -19 101 -4 141 32 85 155 141 217 97 50
          -35 92 -167 92 -294 0 -97 -21 -144 -67 -148 -27 -3 -33 1 -38 20 -5 26 -55
          382 -55 398 0 6 -22 -1 -50 -15 -35 -18 -50 -31 -50 -46 0 -26 61 -463 66
          -468 7 -8 104 34 100 44 -2 7 15 11 49 11 43 -1 58 4 81 24 64 59 88 188 60
          319 -40 191 -161 266 -311 193z">
		</path>
		<path d="M1188 2717 l-168 -81 0 -202 0 -201 171 -82 170 -81 170 81 169 82 0
          202 0 202 -166 79 c-92 43 -169 80 -173 81 -3 0 -81 -35 -173 -80z m328 -13
          l159 -77 -40 -18 c-22 -10 -46 -19 -54 -19 -7 0 -81 32 -163 72 l-149 72 43
          22 c24 13 43 23 44 24 1 0 73 -34 160 -76z m-118 -53 c79 -38 145 -71 148 -74
          3 -3 -7 -12 -24 -21 -28 -15 -33 -13 -180 57 -84 40 -152 75 -152 78 0 7 40
          27 55 28 6 1 75 -30 153 -68z m-77 -48 l159 -76 0 -69 c0 -40 4 -68 10 -68 6
          0 28 9 50 20 39 20 39 20 42 87 l3 68 45 22 c25 12 48 22 53 22 4 1 7 -80 7
          -180 l0 -180 -152 -74 c-84 -41 -156 -75 -160 -75 -5 0 -8 81 -8 180 l0 180
          41 20 c51 26 44 38 -9 17 -22 -9 -50 -13 -63 -11 -22 5 -23 4 -6 -9 15 -13 17
          -35 17 -196 0 -99 -2 -181 -5 -181 -2 0 -72 32 -155 72 l-150 71 0 183 0 184
          24 -10 c13 -5 65 -29 116 -55 50 -25 97 -44 103 -42 7 2 -41 31 -105 63 -65
          32 -118 61 -118 64 0 6 80 48 93 49 5 1 80 -33 168 -76z m239 -108 c0 -43 -4
          -56 -19 -65 -34 -18 -41 -12 -41 39 0 40 4 53 22 65 34 24 38 20 38 -39z">
		</path>
		<path d="M1060 2355 c0 -9 102 -56 113 -52 7 2 -11 16 -40 30 -50 26 -73 33
          -73 22z">
		</path>
		<path d="M1060 2305 c0 -5 55 -35 65 -35 15 0 2 18 -20 28 -27 13 -45 15 -45
          7z">
		</path>
	</g>
</svg>
